<svg xmlns="http://www.w3.org/2000/svg" width="400" height="400" opacity="0.06">
  <!-- Envelope -->
  <rect x="20" y="30" width="30" height="20" rx="2" fill="none" stroke="#7a6955" stroke-width="1.2"/>
  <polyline points="20,30 35,44 50,30" fill="none" stroke="#7a6955" stroke-width="1.2"/>

  <!-- Heart -->
  <path d="M100,35 C100,30 93,25 88,30 C83,35 88,42 100,50 C112,42 117,35 112,30 C107,25 100,30 100,35Z" fill="none" stroke="#7a6955" stroke-width="1.2"/>

  <!-- Camera -->
  <rect x="170" y="28" width="34" height="24" rx="4" fill="none" stroke="#7a6955" stroke-width="1.2"/>
  <circle cx="187" cy="40" r="7" fill="none" stroke="#7a6955" stroke-width="1.2"/>
  <rect x="178" y="24" width="10" height="5" rx="2" fill="none" stroke="#7a6955" stroke-width="1.2"/>

  <!-- Star -->
  <polygon points="260,25 263,35 274,35 265,42 268,52 260,46 252,52 255,42 246,35 257,35" fill="none" stroke="#7a6955" stroke-width="1.2"/>

  <!-- Musical note -->
  <path d="M330,52 L330,32 L344,28 L344,48" fill="none" stroke="#7a6955" stroke-width="1.2"/>
  <circle cx="327" cy="52" r="4" fill="none" stroke="#7a6955" stroke-width="1.2"/>
  <circle cx="341" cy="48" r="4" fill="none" stroke="#7a6955" stroke-width="1.2"/>

  <!-- Speech bubble -->
  <rect x="15" y="100" width="36" height="24" rx="6" fill="none" stroke="#7a6955" stroke-width="1.2"/>
  <path d="M22,124 L18,132 L30,124" fill="none" stroke="#7a6955" stroke-width="1.2"/>

  <!-- Phone -->
  <path d="M95,95 C92,95 88,99 88,102 C88,115 100,128 113,128 C116,128 120,124 120,121 L117,115 L111,115 C109,118 106,120 103,119 C98,117 96,112 96,107 C97,104 99,101 102,99 L95,95Z" fill="none" stroke="#7a6955" stroke-width="1.2"/>

  <!-- Smiley -->
  <circle cx="187" cy="110" r="16" fill="none" stroke="#7a6955" stroke-width="1.2"/>
  <circle cx="182" cy="107" r="1.5" fill="#7a6955"/>
  <circle cx="192" cy="107" r="1.5" fill="#7a6955"/>
  <path d="M181,114 Q187,120 193,114" fill="none" stroke="#7a6955" stroke-width="1.2"/>

  <!-- Diamond -->
  <polygon points="260,95 275,110 260,125 245,110" fill="none" stroke="#7a6955" stroke-width="1.2"/>

  <!-- Flower -->
  <circle cx="340" cy="112" r="5" fill="none" stroke="#7a6955" stroke-width="1.2"/>
  <ellipse cx="340" cy="100" rx="4" ry="7" fill="none" stroke="#7a6955" stroke-width="1.2"/>
  <ellipse cx="340" cy="124" rx="4" ry="7" fill="none" stroke="#7a6955" stroke-width="1.2"/>
  <ellipse cx="328" cy="112" rx="7" ry="4" fill="none" stroke="#7a6955" stroke-width="1.2"/>
  <ellipse cx="352" cy="112" rx="7" ry="4" fill="none" stroke="#7a6955" stroke-width="1.2"/>

  <!-- Lock -->
  <rect x="20" y="186" width="26" height="20" rx="3" fill="none" stroke="#7a6955" stroke-width="1.2"/>
  <path d="M25,186 L25,180 Q33,173 41,180 L41,186" fill="none" stroke="#7a6955" stroke-width="1.2"/>
  <circle cx="33" cy="197" r="3" fill="none" stroke="#7a6955" stroke-width="1.2"/>

  <!-- Sun -->
  <circle cx="95" cy="195" r="10" fill="none" stroke="#7a6955" stroke-width="1.2"/>
  <line x1="95" y1="178" x2="95" y2="173" stroke="#7a6955" stroke-width="1.2"/>
  <line x1="95" y1="212" x2="95" y2="217" stroke="#7a6955" stroke-width="1.2"/>
  <line x1="78" y1="195" x2="73" y2="195" stroke="#7a6955" stroke-width="1.2"/>
  <line x1="112" y1="195" x2="117" y2="195" stroke="#7a6955" stroke-width="1.2"/>
  <line x1="83" y1="183" x2="79" y2="179" stroke="#7a6955" stroke-width="1.2"/>
  <line x1="107" y1="207" x2="111" y2="211" stroke="#7a6955" stroke-width="1.2"/>
  <line x1="107" y1="183" x2="111" y2="179" stroke="#7a6955" stroke-width="1.2"/>
  <line x1="83" y1="207" x2="79" y2="211" stroke="#7a6955" stroke-width="1.2"/>

  <!-- Envelope row 2 -->
  <rect x="170" y="178" width="30" height="20" rx="2" fill="none" stroke="#7a6955" stroke-width="1.2"/>
  <polyline points="170,178 185,192 200,178" fill="none" stroke="#7a6955" stroke-width="1.2"/>

  <!-- Lightning bolt -->
  <polygon points="265,175 255,198 263,198 253,220 270,195 261,195" fill="none" stroke="#7a6955" stroke-width="1.2"/>

  <!-- Music notes row 2 -->
  <path d="M335,215 L335,195 L349,191 L349,211" fill="none" stroke="#7a6955" stroke-width="1.2"/>
  <circle cx="332" cy="215" r="4" fill="none" stroke="#7a6955" stroke-width="1.2"/>
  <circle cx="346" cy="211" r="4" fill="none" stroke="#7a6955" stroke-width="1.2"/>

  <!-- Leaf -->
  <path d="M33,270 Q50,250 70,270 Q50,290 33,270Z" fill="none" stroke="#7a6955" stroke-width="1.2"/>
  <line x1="33" y1="270" x2="70" y2="270" stroke="#7a6955" stroke-width="1.2"/>

  <!-- Location pin -->
  <path d="M95,258 C95,248 110,248 110,258 C110,268 102,280 102,280 C102,280 95,268 95,258Z" fill="none" stroke="#7a6955" stroke-width="1.2"/>
  <circle cx="102" cy="258" r="4" fill="none" stroke="#7a6955" stroke-width="1.2"/>

  <!-- Stars row 2 -->
  <polygon points="187,258 190,268 200,268 192,274 195,284 187,278 179,284 182,274 174,268 184,268" fill="none" stroke="#7a6955" stroke-width="1.2"/>

  <!-- Cloud -->
  <path d="M240,275 Q240,265 250,265 Q252,257 262,258 Q270,252 275,260 Q285,260 285,270 Q285,278 278,278 L245,278 Q240,278 240,275Z" fill="none" stroke="#7a6955" stroke-width="1.2"/>

  <!-- Gift box -->
  <rect x="325" y="265" width="30" height="20" rx="2" fill="none" stroke="#7a6955" stroke-width="1.2"/>
  <rect x="325" y="258" width="30" height="8" rx="2" fill="none" stroke="#7a6955" stroke-width="1.2"/>
  <line x1="340" y1="258" x2="340" y2="285" stroke="#7a6955" stroke-width="1.2"/>
  <path d="M340,258 Q333,250 330,255 Q327,260 340,258Z" fill="none" stroke="#7a6955" stroke-width="1.2"/>
  <path d="M340,258 Q347,250 350,255 Q353,260 340,258Z" fill="none" stroke="#7a6955" stroke-width="1.2"/>

  <!-- Row 4: more variety -->
  <!-- Hourglass -->
  <polygon points="20,345 50,345 35,362 50,380 20,380 35,362" fill="none" stroke="#7a6955" stroke-width="1.2"/>
  <line x1="20" y1="345" x2="50" y2="345" stroke="#7a6955" stroke-width="1.2"/>
  <line x1="20" y1="380" x2="50" y2="380" stroke="#7a6955" stroke-width="1.2"/>

  <!-- Spiral -->
  <path d="M95,362 Q95,345 110,345 Q125,345 125,362 Q125,375 112,375 Q102,375 102,365 Q102,358 110,358" fill="none" stroke="#7a6955" stroke-width="1.2"/>

  <!-- Triangle -->
  <polygon points="187,345 202,375 172,375" fill="none" stroke="#7a6955" stroke-width="1.2"/>

  <!-- Umbrella -->
  <path d="M250,375 L250,350 Q250,335 265,335 Q280,335 280,350 Q280,335 295,335 Q310,335 310,350 L310,375" fill="none" stroke="#7a6955" stroke-width="1.2"/>
  <path d="M310,375 Q310,382 305,382 Q300,382 300,375" fill="none" stroke="#7a6955" stroke-width="1.2"/>

  <!-- Key -->
  <circle cx="360" cy="345" r="10" fill="none" stroke="#7a6955" stroke-width="1.2"/>
  <line x1="370" y1="350" x2="390" y2="365" stroke="#7a6955" stroke-width="1.2"/>
  <line x1="383" y1="360" x2="383" y2="367" stroke="#7a6955" stroke-width="1.2"/>
  <line x1="387" y1="363" x2="387" y2="370" stroke="#7a6955" stroke-width="1.2"/>
</svg>
